<svg width="150" height="192" viewBox="0 0 150 192" fill="none" xmlns="http://www.w3.org/2000/svg">
<path d="M43.8945 1.76886C40.6985 4.62313 37.4623 8.36182 34.9095 12.1407C29.9447 19.5377 26.8492 27.6784 25.4824 36.8844C24.8392 41.1658 24.8392 49.206 25.4824 53.407C27.1307 64.3216 31.2513 74.0101 37.7035 82.0101C40.9799 86.0905 45.9849 90.6734 50.2462 93.5075L51.3518 94.2513L51.4121 77.4673L51.4523 60.7035H58.6884H65.9246L65.9648 80.0402L66.0251 99.397L67.4322 99.6784C68.4975 99.9196 70.4673 99.9799 75.5729 100C81.8241 100 82.4673 99.9598 84.7186 99.5377C86.9497 99.0955 90.6683 98.0905 92.5578 97.4271L93.3618 97.1457L93.4221 61.3266L93.4623 25.5277H79.6935H65.9246V31.4573V37.3869H58.6884H51.4523V18.6935V2.28882e-05H48.6784H45.9045L43.8945 1.76886Z" fill="#2872CA"/>
<path d="M56.9201 9.48742L56.9804 18.995L78.8497 19.0553L100.699 19.0955V56.5829C100.699 77.206 100.759 94.0703 100.82 94.0703C101.161 94.0703 104.578 91.598 106.81 89.7286C118.709 79.799 126.106 64.7437 127.011 48.603C127.634 37.5678 125.322 26.8744 120.257 17.2864C118.85 14.6131 115.815 10.0502 113.965 7.83918C112.257 5.80903 108.9 2.35175 107.272 0.984909L106.106 -1.52588e-05H81.4829H56.8799L56.9201 9.48742Z" fill="#D33039"/>
<path d="M7.70455 164.25V180H3.68182V145.091H7.70455V157.909H8.04545C8.65909 156.557 9.57955 155.483 10.8068 154.688C12.0455 153.881 13.6932 153.477 15.75 153.477C17.5341 153.477 19.0966 153.835 20.4375 154.551C21.7784 155.256 22.8182 156.341 23.5568 157.807C24.3068 159.261 24.6818 161.114 24.6818 163.364V180H20.6591V163.636C20.6591 161.557 20.1193 159.949 19.0398 158.812C17.9716 157.665 16.4886 157.091 14.5909 157.091C13.2727 157.091 12.0909 157.369 11.0455 157.926C10.0114 158.483 9.19318 159.295 8.59091 160.364C8 161.432 7.70455 162.727 7.70455 164.25ZM39.7457 180.614C38.0866 180.614 36.581 180.301 35.2287 179.676C33.8764 179.04 32.8026 178.125 32.0071 176.932C31.2116 175.727 30.8139 174.273 30.8139 172.568C30.8139 171.068 31.1094 169.852 31.7003 168.92C32.2912 167.977 33.081 167.239 34.0696 166.705C35.0582 166.17 36.1491 165.773 37.3423 165.511C38.5469 165.239 39.7571 165.023 40.973 164.864C42.5639 164.659 43.8537 164.506 44.8423 164.403C45.8423 164.29 46.5696 164.102 47.0241 163.841C47.4901 163.58 47.723 163.125 47.723 162.477V162.341C47.723 160.659 47.2628 159.352 46.3423 158.42C45.4332 157.489 44.0526 157.023 42.2003 157.023C40.2798 157.023 38.7741 157.443 37.6832 158.284C36.5923 159.125 35.8253 160.023 35.3821 160.977L31.5639 159.614C32.2457 158.023 33.1548 156.784 34.2912 155.898C35.4389 155 36.6889 154.375 38.0412 154.023C39.4048 153.659 40.7457 153.477 42.0639 153.477C42.9048 153.477 43.8707 153.58 44.9616 153.784C46.0639 153.977 47.1264 154.381 48.1491 154.994C49.1832 155.608 50.0412 156.534 50.723 157.773C51.4048 159.011 51.7457 160.67 51.7457 162.75V180H47.723V176.455H47.5185C47.2457 177.023 46.7912 177.631 46.1548 178.278C45.5185 178.926 44.6719 179.477 43.6151 179.932C42.5582 180.386 41.2685 180.614 39.7457 180.614ZM40.3594 177C41.9503 177 43.2912 176.688 44.3821 176.062C45.4844 175.438 46.3139 174.631 46.8707 173.642C47.4389 172.653 47.723 171.614 47.723 170.523V166.841C47.5526 167.045 47.1776 167.233 46.598 167.403C46.0298 167.562 45.3707 167.705 44.6207 167.83C43.8821 167.943 43.1605 168.045 42.456 168.136C41.7628 168.216 41.2003 168.284 40.7685 168.341C39.723 168.477 38.7457 168.699 37.8366 169.006C36.9389 169.301 36.2116 169.75 35.6548 170.352C35.1094 170.943 34.8366 171.75 34.8366 172.773C34.8366 174.17 35.3537 175.227 36.3878 175.943C37.4332 176.648 38.7571 177 40.3594 177ZM59.0881 180V153.818H62.9744V157.909H63.3153C63.8608 156.511 64.7415 155.426 65.9574 154.653C67.1733 153.869 68.6335 153.477 70.3381 153.477C72.0653 153.477 73.5028 153.869 74.6506 154.653C75.8097 155.426 76.7131 156.511 77.3608 157.909H77.6335C78.304 156.557 79.3097 155.483 80.6506 154.688C81.9915 153.881 83.5994 153.477 85.4744 153.477C87.8153 153.477 89.7301 154.21 91.2188 155.676C92.7074 157.131 93.4517 159.398 93.4517 162.477V180H89.429V162.477C89.429 160.545 88.9006 159.165 87.8438 158.335C86.7869 157.506 85.5426 157.091 84.1108 157.091C82.2699 157.091 80.8438 157.648 79.8324 158.761C78.821 159.864 78.3153 161.261 78.3153 162.955V180H74.2244V162.068C74.2244 160.58 73.7415 159.381 72.7756 158.472C71.8097 157.551 70.5653 157.091 69.0426 157.091C67.9972 157.091 67.0199 157.369 66.1108 157.926C65.2131 158.483 64.4858 159.256 63.929 160.244C63.3835 161.222 63.1108 162.352 63.1108 163.636V180H59.0881ZM119.352 159.682L115.739 160.705C115.511 160.102 115.176 159.517 114.733 158.949C114.301 158.369 113.71 157.892 112.96 157.517C112.21 157.142 111.25 156.955 110.08 156.955C108.477 156.955 107.142 157.324 106.074 158.062C105.017 158.79 104.489 159.716 104.489 160.841C104.489 161.841 104.852 162.631 105.58 163.21C106.307 163.79 107.443 164.273 108.989 164.659L112.875 165.614C115.216 166.182 116.96 167.051 118.108 168.222C119.256 169.381 119.83 170.875 119.83 172.705C119.83 174.205 119.398 175.545 118.534 176.727C117.682 177.909 116.489 178.841 114.955 179.523C113.42 180.205 111.636 180.545 109.602 180.545C106.932 180.545 104.722 179.966 102.972 178.807C101.222 177.648 100.114 175.955 99.6477 173.727L103.466 172.773C103.83 174.182 104.517 175.239 105.528 175.943C106.551 176.648 107.886 177 109.534 177C111.409 177 112.898 176.602 114 175.807C115.114 175 115.67 174.034 115.67 172.909C115.67 172 115.352 171.239 114.716 170.625C114.08 170 113.102 169.534 111.784 169.227L107.42 168.205C105.023 167.636 103.261 166.756 102.136 165.562C101.023 164.358 100.466 162.852 100.466 161.045C100.466 159.568 100.881 158.261 101.71 157.125C102.551 155.989 103.693 155.097 105.136 154.449C106.591 153.801 108.239 153.477 110.08 153.477C112.67 153.477 114.705 154.045 116.182 155.182C117.67 156.318 118.727 157.818 119.352 159.682ZM133.589 180.614C131.93 180.614 130.425 180.301 129.072 179.676C127.72 179.04 126.646 178.125 125.851 176.932C125.055 175.727 124.658 174.273 124.658 172.568C124.658 171.068 124.953 169.852 125.544 168.92C126.135 167.977 126.925 167.239 127.913 166.705C128.902 166.17 129.993 165.773 131.186 165.511C132.391 165.239 133.601 165.023 134.817 164.864C136.408 164.659 137.697 164.506 138.686 164.403C139.686 164.29 140.413 164.102 140.868 163.841C141.334 163.58 141.567 163.125 141.567 162.477V162.341C141.567 160.659 141.107 159.352 140.186 158.42C139.277 157.489 137.896 157.023 136.044 157.023C134.124 157.023 132.618 157.443 131.527 158.284C130.436 159.125 129.669 160.023 129.226 160.977L125.408 159.614C126.089 158.023 126.999 156.784 128.135 155.898C129.283 155 130.533 154.375 131.885 154.023C133.249 153.659 134.589 153.477 135.908 153.477C136.749 153.477 137.714 153.58 138.805 153.784C139.908 153.977 140.97 154.381 141.993 154.994C143.027 155.608 143.885 156.534 144.567 157.773C145.249 159.011 145.589 160.67 145.589 162.75V180H141.567V176.455H141.362C141.089 177.023 140.635 177.631 139.999 178.278C139.362 178.926 138.516 179.477 137.459 179.932C136.402 180.386 135.112 180.614 133.589 180.614ZM134.203 177C135.794 177 137.135 176.688 138.226 176.062C139.328 175.438 140.158 174.631 140.714 173.642C141.283 172.653 141.567 171.614 141.567 170.523V166.841C141.396 167.045 141.021 167.233 140.442 167.403C139.874 167.562 139.214 167.705 138.464 167.83C137.726 167.943 137.004 168.045 136.3 168.136C135.607 168.216 135.044 168.284 134.612 168.341C133.567 168.477 132.589 168.699 131.68 169.006C130.783 169.301 130.055 169.75 129.499 170.352C128.953 170.943 128.68 171.75 128.68 172.773C128.68 174.17 129.197 175.227 130.232 175.943C131.277 176.648 132.601 177 134.203 177Z" fill="black"/>
</svg>
