<svg width="56" height="56" viewBox="0 0 56 56" fill="none" xmlns="http://www.w3.org/2000/svg">
<g clip-path="url(#clip0_76_634)">
<path d="M28 0C12.56 0 0 12.56 0 28C0 43.44 12.56 56 28 56C43.44 56 56 43.44 56 28C56 12.56 43.44 0 28 0ZM44.8 18.8C44.8 18.8 30.16 34.96 26.88 38.8C23.6 42.64 21.04 38.8 21.04 38.8L11.52 28.96C11.52 28.96 10 26.64 12.72 24.48C15.28 22.4 17.36 24.48 17.36 24.48L24.08 31.52L40.8 15.92C40.8 15.92 42.4 14.8 44.08 16.24C45.36 17.44 44.8 18.8 44.8 18.8Z" fill="#52C41A"/>
</g>
<defs>
<clipPath id="clip0_76_634">
<rect width="56" height="56" fill="white"/>
</clipPath>
</defs>
</svg>
