<svg width="103" height="100" viewBox="0 0 103 100" fill="none" xmlns="http://www.w3.org/2000/svg">
<path d="M18.8945 1.76886C15.6985 4.62313 12.4623 8.36182 9.90955 12.1407C4.94472 19.5377 1.84925 27.6784 0.482412 36.8844C-0.160804 41.1658 -0.160804 49.206 0.482412 53.407C2.13065 64.3216 6.25126 74.0101 12.7035 82.0101C15.9799 86.0905 20.9849 90.6734 25.2462 93.5075L26.3518 94.2513L26.4121 77.4673L26.4523 60.7035H33.6884H40.9246L40.9648 80.0402L41.0251 99.397L42.4322 99.6784C43.4975 99.9196 45.4673 99.9799 50.5729 100C56.8241 100 57.4673 99.9598 59.7186 99.5377C61.9497 99.0955 65.6683 98.0905 67.5578 97.4271L68.3618 97.1457L68.4221 61.3266L68.4623 25.5277H54.6935H40.9246V31.4573V37.3869H33.6884H26.4523V18.6935V2.28882e-05H23.6784H20.9045L18.8945 1.76886Z" fill="white"/>
<path d="M31.9201 9.48742L31.9804 18.995L53.8497 19.0553L75.699 19.0955V56.5829C75.699 77.206 75.7593 94.0703 75.8196 94.0703C76.1613 94.0703 79.5784 91.598 81.8095 89.7286C93.709 79.799 101.106 64.7437 102.011 48.603C102.634 37.5678 100.322 26.8744 95.2567 17.2864C93.8497 14.6131 90.8145 10.0502 88.9653 7.83918C87.2568 5.80903 83.9 2.35175 82.2718 0.984909L81.106 -1.52588e-05H56.4829H31.8799L31.9201 9.48742Z" fill="white"/>
</svg>
