<svg width="110" height="69" viewBox="0 0 110 69" fill="none" xmlns="http://www.w3.org/2000/svg">
<path d="M101.421 3C104.605 3 107.211 5.5875 107.211 8.75V60.5C107.211 63.6625 104.605 66.25 101.421 66.25H8.78947C5.60526 66.25 3 63.6625 3 60.5V8.75C3 5.5875 5.60526 3 8.78947 3H101.421Z" fill="white"/>
<path d="M14.7911 8.21963C13.4159 8.67005 12.107 10.4243 11.61 12.4868C11.4277 13.2217 10.8975 17.9867 9.68807 29.4369C9.47268 31.523 8.76025 38.232 8.11409 44.3719C7.36852 51.2942 6.95431 55.9406 7.00401 56.6281C7.15313 58.9751 8.69397 61.2509 10.4833 61.7724C11.0964 61.9621 23.8208 62.0332 53.8424 61.9858L95.1969 61.9166C95.9371 61.9153 96.6551 61.664 97.2345 61.2035V61.2035C98.1292 60.4923 98.9245 59.2358 99.3221 57.8846C99.4381 57.4816 99.9517 53.2144 100.465 48.402C101.625 37.5208 102.321 31.0252 103.315 21.7323C103.762 17.4414 104.044 14.0514 103.994 13.3876C103.845 11.0644 102.321 8.78858 100.565 8.24333C99.5872 7.93515 15.6692 7.91144 14.7911 8.21963ZM79.8544 11.3963C79.8544 11.5859 79.5894 13.6958 79.2746 16.1139C78.5456 21.6138 78.5456 21.9931 79.2083 22.7754V22.7754C79.5337 23.1659 80.0158 23.3917 80.5242 23.3917H90.309C97.4996 23.3917 100.896 23.4629 100.896 23.6288C100.896 23.771 100.565 27.0425 100.151 30.9304C99.7363 34.7945 99.0901 40.7922 98.7256 44.2534C98.3611 47.7145 97.9138 51.8394 97.7481 53.4515C97.4168 56.5333 97.1351 57.5053 96.373 58.335V58.335C96.077 58.6526 95.6627 58.8333 95.2286 58.8341L56.6424 58.9039C35.054 58.9276 17.3923 58.9039 17.3923 58.8565C17.3923 58.8091 17.5083 57.932 17.6408 56.9126C17.8231 55.5613 17.8396 54.9924 17.7071 54.7553C17.558 54.5183 16.6301 54.4471 13.3993 54.4471C11.1295 54.4471 9.27386 54.376 9.27386 54.2575C9.27386 54.1627 9.75434 49.4925 10.3508 43.8978C10.9472 38.2794 11.5437 32.5898 11.6928 31.2149C12.952 19.1009 13.5982 13.6247 13.797 13.0557C14.0952 12.226 14.526 11.6334 15.0727 11.3252C15.3378 11.1829 26.8527 11.0881 47.679 11.0881C75.2154 11.0644 79.8544 11.1118 79.8544 11.3963ZM92.5291 12.4868V12.4868C92.5291 13.2069 91.9454 13.7906 91.2253 13.7906H91.038H90.5911C90.0065 13.7906 89.525 13.3315 89.4971 12.7476V12.7476C89.4143 11.0644 89.4309 11.0407 91.0711 11.1118L91.2268 11.1194C91.9561 11.155 92.5291 11.7566 92.5291 12.4868V12.4868ZM100.863 11.4674C100.946 11.7045 100.979 12.3445 100.929 12.9135V12.9135C100.892 13.4717 100.425 13.9031 99.8652 13.8954L97.4333 13.8618L95.1827 13.8149C94.5291 13.8012 93.9985 13.2822 93.9706 12.629V12.629C93.9374 11.8704 93.9871 11.3963 94.1362 11.2778C94.2522 11.1592 95.7765 11.0644 97.5327 11.0644C100.399 11.0644 100.73 11.1118 100.863 11.4674Z" fill="#D82826"/>
<path d="M26.9866 20.6427C24.0706 21.8518 21.9167 25.4551 21.7345 29.4378L21.7002 30.1731C21.673 30.7567 21.192 31.2158 20.6078 31.2158V31.2158C19.6634 31.2158 19.5475 31.2632 19.5475 31.6899C19.5475 32.1403 19.6634 32.164 21.7842 32.164C23.9049 32.164 24.0209 32.1878 24.0209 32.6382C24.0209 33.0649 23.9049 33.1123 23.0765 33.136C20.5747 33.2308 18.3877 33.4916 18.3877 33.705C18.3877 33.8472 19.7629 33.9894 21.983 34.0606C25.4623 34.1791 25.5949 34.2028 25.5949 34.6532C25.5949 35.1036 25.4623 35.1273 22.8114 35.1985C20.2765 35.2459 20.0279 35.2933 20.0777 35.6726C20.1274 36.0282 20.4587 36.0756 23.5735 36.1467C26.8541 36.1941 27.0032 36.2178 27.0032 36.6683C27.0032 37.1187 26.8541 37.1424 24.1534 37.1898C21.7345 37.2609 21.2871 37.3083 21.2871 37.6165C21.2871 37.901 21.6682 37.9958 23.2753 38.1144C24.3688 38.1855 25.5617 38.3988 25.9262 38.5648C26.3239 38.7307 27.1357 38.8255 28.0304 38.7544C29.3227 38.6596 29.6044 38.5648 30.847 37.6639C32.5867 36.4075 33.1997 35.6963 33.0671 35.1036C33.0009 34.8429 32.5701 34.0369 32.0896 33.2782L31.9086 32.9844C31.5524 32.4062 30.7622 32.2863 30.2505 32.733V32.733C29.0245 33.7761 28.3121 33.9894 27.4339 33.5627C25.6777 32.6856 25.3298 28.7029 26.8209 26.4745C27.9973 24.7202 29.5712 24.7439 30.8801 26.5456V26.5456C31.2092 26.9935 31.8841 26.9758 32.1892 26.5112L32.8517 25.5025L33.5873 24.3691C33.9205 23.8557 33.8912 23.1875 33.5145 22.7052V22.7052C33.1665 22.2785 32.4044 21.591 31.8079 21.188C30.8967 20.5716 30.4991 20.4531 29.2399 20.4057C28.3452 20.3582 27.4505 20.4531 26.9866 20.6427Z" fill="#D82826"/>
<path d="M52.5175 20.6648C51.9376 20.8781 50.6122 20.9967 48.9222 21.0204C46.6358 21.0204 46.2216 21.0678 46.2216 21.376C46.2216 21.6841 46.6524 21.7316 49.1708 21.7316C50.7779 21.7316 52.2027 21.8264 52.3353 21.9449C52.4678 22.0634 52.5175 22.3242 52.4678 22.5376C52.3684 22.8695 51.9045 22.9169 48.7068 22.9169C45.2938 22.9169 45.0453 22.9406 45.095 23.3199C45.1447 23.7229 45.4926 23.7466 49.1708 23.8177C53.0311 23.8651 53.1803 23.8888 53.1803 24.3393C53.1803 24.7897 53.0311 24.8134 49.9992 24.8608C47.1163 24.9319 46.8015 24.9793 46.7518 25.3349C46.7021 25.7142 46.8843 25.7616 48.9554 25.7616C50.8607 25.7616 51.2252 25.8091 51.3081 26.1409C51.4406 26.6625 51.043 26.9707 50.4631 26.8047C49.6844 26.5677 47.8784 26.9233 47.8784 27.3263C47.8784 27.5396 48.0607 27.6582 48.4583 27.6582C48.9554 27.6582 49.0713 27.7767 49.3696 28.5827C49.8335 29.9103 50.4962 30.4792 52.7661 31.5697C54.7211 32.4943 54.7542 32.518 54.8039 33.2766C54.8536 33.9404 54.7874 34.0589 54.4229 34.2011C53.3459 34.5804 50.5128 33.324 49.7672 32.1387C49.6181 31.8779 49.4358 31.6882 49.3696 31.6882C49.2205 31.6882 47.5471 35.5998 47.5471 35.9317C47.5471 36.2873 49.121 37.52 50.3637 38.1364C51.2418 38.5868 51.7885 38.6816 53.4288 38.6816C55.798 38.6816 56.8915 38.1838 57.9685 36.6429C59.2442 34.8175 59.5259 31.6882 58.5815 29.9103C57.9519 28.7487 57.3554 28.2508 55.5164 27.3974C53.4454 26.4491 53.3128 26.3306 53.3791 25.572C53.4288 25.003 53.5116 24.9319 54.1744 24.8608C54.9531 24.766 56.7093 25.5009 57.5874 26.2595C57.8691 26.5202 58.1507 26.7099 58.2004 26.7099C58.2998 26.7099 59.9732 22.6087 59.9732 22.3716C59.9732 22.0634 58.5815 21.21 57.372 20.7596C55.8974 20.238 53.8596 20.1906 52.5175 20.6648Z" fill="#D82826"/>
<path d="M39.7628 20.9002C39.6965 21.0188 38.603 23.6502 37.3438 26.7083C36.1012 29.7664 34.5604 33.5358 33.9308 35.053C33.3178 36.5702 32.7544 37.9926 32.7047 38.1822C32.6219 38.5141 32.8538 38.5615 34.6101 38.5615H35.2364C36.061 38.5615 36.7946 38.0377 37.0622 37.2577V37.2577V37.2577C37.3298 36.4777 38.0633 35.9538 38.888 35.9538H39.945H41.0716C41.8125 35.9538 42.4309 36.5196 42.4965 37.2577V37.2577V37.2577C42.5526 37.9933 43.1659 38.5615 43.9036 38.5615H44.8327C46.8871 38.5615 47.0694 38.5378 46.9865 38.1348C46.9368 37.9215 46.7546 36.831 46.5723 35.7168C46.3901 34.6026 45.7936 31.0229 45.2469 27.7751C44.6835 24.5036 44.2031 21.6114 44.1534 21.327C44.0705 20.8291 43.9711 20.8054 41.9829 20.7343C40.7237 20.6869 39.8456 20.758 39.7628 20.9002ZM41.4693 29.0078C41.635 30.288 41.751 31.4733 41.751 31.6155C41.751 31.8289 41.3865 31.9237 40.5084 31.9237C39.7297 31.9237 39.2657 31.8289 39.2657 31.663C39.2657 31.3311 40.9723 26.7083 41.1048 26.7083C41.1545 26.7083 41.3202 27.7514 41.4693 29.0078Z" fill="#D82826"/>
<path d="M62.6271 20.8528C62.6271 20.9714 60.3241 37.4473 60.2247 38.0163C60.1418 38.5615 60.1418 38.5615 62.1797 38.5615V38.5615C63.3597 38.5615 64.3613 37.6963 64.5327 36.5289L64.7147 35.29L64.9088 33.9775C65.0748 32.856 66.0172 32.0124 67.1502 31.9711V31.9711C68.2106 31.9474 69.0887 31.9474 69.0887 31.9948C69.0887 32.0423 68.9064 33.3935 68.6745 35.0056C68.4425 36.6176 68.2603 38.0637 68.2603 38.2296C68.2603 38.4904 68.6745 38.5615 70.2485 38.5615C72.1704 38.5615 72.2366 38.5378 72.3195 38.0163C72.4355 37.3288 74.7219 21.0188 74.7219 20.8765C74.7219 20.8291 73.8106 20.7817 72.684 20.7817V20.7817C71.5169 20.7817 70.5296 21.6447 70.3735 22.8013L70.1822 24.2191L69.9842 25.6862C69.8319 26.8146 68.8687 27.6566 67.7301 27.6566V27.6566H66.3195C66.018 27.6566 65.7894 27.3846 65.8413 27.0876V27.0876C65.891 26.7794 66.0898 25.4045 66.2721 24.0532C66.4543 22.7256 66.6366 21.4218 66.6697 21.1847C66.736 20.8291 66.5537 20.7817 64.6815 20.7817C63.5549 20.7817 62.6271 20.8054 62.6271 20.8528Z" fill="#D82826"/>
<path d="M21.7365 41.1697C18.4892 42.1417 16.9483 47.3571 18.92 50.7471C19.649 52.0273 20.5271 52.5488 21.9519 52.5251C22.5981 52.5251 23.3437 52.3829 23.6419 52.2406C25.862 51.0553 27.0715 47.7838 26.4585 44.702C25.9117 42.0469 23.8904 40.5297 21.7365 41.1697ZM23.4596 44.5598C24.1058 45.3658 24.2052 47.1438 23.6585 48.2817C22.9129 49.8463 21.9022 50.0596 21.107 48.8269C20.8087 48.3528 20.7093 47.9498 20.7093 47.12C20.7093 44.6783 22.333 43.1611 23.4596 44.5598Z" fill="#D82826"/>
<path d="M27.5156 46.1962C27.1346 48.9699 26.7701 51.4828 26.7204 51.7673C26.6375 52.2888 26.6707 52.3125 27.7973 52.3125C28.8577 52.3125 28.9571 52.2651 29.0399 51.7673C29.0896 51.4828 29.2553 50.25 29.421 49.041C29.5867 47.8557 29.7689 46.86 29.8186 46.86C29.8683 46.86 30.3819 48.0928 30.9784 49.5863L31.6424 51.2934C31.8814 51.9078 32.473 52.3125 33.1323 52.3125V52.3125V52.3125C33.7585 52.3125 34.2882 51.8494 34.3718 51.2288L34.9382 47.026C35.3358 44.1338 35.7003 41.6209 35.75 41.455C35.7997 41.2416 35.5181 41.1705 34.6565 41.1705V41.1705C33.9881 41.1705 33.4185 41.6556 33.3121 42.3155L33.2979 42.4032C33.1985 43.0907 33.0329 44.3709 32.9334 45.248C32.8175 46.1488 32.6849 46.86 32.6352 46.86C32.5855 46.86 32.0388 45.5799 31.4257 44.0153L30.6834 42.1409C30.4515 41.5552 29.8853 41.1705 29.2553 41.1705V41.1705V41.1705C28.657 41.1705 28.1504 41.6118 28.0683 42.2044L27.5156 46.1962Z" fill="#D82826"/>
<path d="M38.5196 41.9298C38.3374 43.0914 37.1113 52.1946 37.1113 52.3843C37.1113 52.5028 38.1551 52.5502 39.5634 52.5028C42.2806 52.408 43.1422 52.0524 44.2025 50.5826C45.8096 48.3779 45.9753 44.7271 44.567 42.8069C43.7552 41.6927 42.9102 41.4082 40.5244 41.4082C38.6687 41.4082 38.6025 41.4319 38.5196 41.9298ZM42.1481 44.5138C43.0759 45.1301 43.1422 47.6667 42.2475 48.8757C41.883 49.3736 41.5516 49.5632 40.922 49.6581C39.9445 49.7766 39.9611 49.9425 40.425 46.7422C40.6072 45.4857 40.7563 44.3952 40.7563 44.3478C40.7563 44.1345 41.767 44.2767 42.1481 44.5138Z" fill="black"/>
<path d="M46.222 46.8869C45.872 49.4603 45.6626 51.2157 45.6196 51.9976C45.6025 52.308 45.7952 52.4938 46.1059 52.5052C46.694 52.5268 47.77 52.5217 48.9558 52.5054L50.6983 52.4658C51.5 52.4476 52.1712 51.8529 52.286 51.0593V51.0593V51.0593C52.3824 50.3441 51.8263 49.708 51.1047 49.708H50.4138C48.5913 49.708 48.3593 49.6606 48.4422 49.3287C48.4919 49.1153 48.5416 48.8072 48.5416 48.6175C48.5416 48.3567 48.9061 48.2856 50.3475 48.2856C52.3357 48.2856 52.2529 48.3567 52.4351 46.6025V46.6025C52.4961 46.0536 52.0542 45.5793 51.5024 45.6014L50.7783 45.6305L49.6871 45.6747C49.3329 45.689 49.0453 45.3914 49.0718 45.0378V45.0378V45.0378C49.1001 44.66 49.408 44.3639 49.7867 44.3505L51.1262 44.3029L52.2633 44.2629C52.7737 44.245 53.1966 43.861 53.2635 43.3547V43.3547C53.3132 42.8805 53.4126 42.2405 53.4623 41.9323V41.9323C53.5058 41.6585 53.2943 41.4108 53.0171 41.4108H50.2647V41.4108C48.3759 41.4108 46.7776 42.8062 46.5228 44.6777L46.222 46.8869Z" fill="black"/>
<path d="M53.8624 46.6693C53.4647 49.5852 53.1002 52.0981 53.0505 52.2403C53.0008 52.4774 53.6304 52.5485 55.9003 52.5485C59.1808 52.5485 58.7831 52.8093 59.1311 50.4623V50.4623C59.2096 49.9381 58.8035 49.4667 58.2734 49.4667H57.6731V49.4667C56.8143 49.4667 56.153 48.7088 56.2694 47.858L56.4967 46.1952C56.7452 44.4172 56.9938 42.5918 57.06 42.1651V42.1651C57.1292 41.7691 56.8245 41.4065 56.4225 41.4065H55.8837V41.4065C55.134 41.4065 54.4998 41.9607 54.3992 42.7035L53.8624 46.6693Z" fill="black"/>
<path d="M60.3209 46.5516C59.9233 49.3964 59.5754 51.9092 59.5257 52.1226C59.4594 52.5019 59.5919 52.5493 60.7517 52.5493V52.5493C61.5013 52.5493 62.1353 51.995 62.2354 51.2522L62.773 47.2628C63.1707 44.3706 63.5352 41.8577 63.5849 41.6918C63.6346 41.4784 63.3198 41.4073 62.3423 41.4073V41.4073C61.592 41.4073 60.9567 41.9607 60.8538 42.7038L60.3209 46.5516Z" fill="black"/>
<path d="M64.1143 41.5735C64.1143 41.6683 64.4788 44.1575 64.9261 47.0971L65.5256 51.1182C65.6396 51.8823 66.2754 52.4607 67.0468 52.5021V52.5021V52.5021C67.8367 52.5445 68.5636 52.0722 68.8457 51.3332L70.4267 47.1919C71.3169 44.8506 72.1036 42.7904 72.4029 41.9703C72.4931 41.723 72.4378 41.5049 72.1775 41.465C71.9525 41.4304 71.6384 41.4075 71.2883 41.4075V41.4075C70.5166 41.4075 69.8317 41.9016 69.5881 42.6338L68.8528 44.845C68.2232 46.7415 67.6599 48.2824 67.6102 48.2824C67.5439 48.2824 67.3616 46.7652 67.1794 44.8924L66.9813 42.88C66.9047 42.1015 66.2706 41.4958 65.4894 41.4549V41.4549C64.7273 41.4075 64.1143 41.4786 64.1143 41.5735Z" fill="black"/>
<path d="M72.4191 46.4341C72.0381 49.2078 71.6736 51.7207 71.6239 52.0051V52.0051C71.5803 52.292 71.8023 52.5504 72.0925 52.5504H74.8547C78.5659 52.5504 78.2346 52.7163 78.45 50.7013V50.7013C78.5117 50.1711 78.0973 49.7056 77.5635 49.7056H76.5612C74.4736 49.7056 74.3907 49.6582 74.6558 48.6625C74.7387 48.3544 75.07 48.2832 76.5446 48.2832H77.1347C77.8247 48.2832 78.4114 47.7798 78.5162 47.0979V47.0979C78.6156 46.4341 78.6985 45.8178 78.6985 45.7229C78.6985 45.6281 77.986 45.5807 77.1079 45.6281C75.2026 45.7229 75.07 45.6755 75.1695 44.8695V44.8695C75.2169 44.5166 75.5181 44.2531 75.8742 44.2531H77.2902H78.2314C78.855 44.2531 79.3781 43.7827 79.4441 43.1627V43.1627C79.4938 42.5463 79.5932 41.9062 79.6429 41.7403C79.7091 41.4558 79.1624 41.4084 76.4286 41.4084V41.4084C74.5293 41.4084 72.921 42.8093 72.6605 44.6907L72.4191 46.4341Z" fill="black"/>
<path d="M80.6865 41.5488C80.6865 41.62 80.3551 44.0854 79.9409 47.025C79.5267 49.9646 79.1953 52.4064 79.1953 52.4538C79.1953 52.5249 79.7752 52.5486 80.4876 52.5012V52.5012C81.2236 52.4602 81.8217 51.8926 81.9011 51.1598L81.9125 51.0551C82.0616 49.7513 82.0782 49.7039 82.5918 49.7039C83.0723 49.7039 83.122 49.775 83.3539 51.0551V51.0551C83.4994 51.8602 84.1809 52.4586 84.998 52.4989L85.0439 52.5012C85.8392 52.5249 86.4853 52.5249 86.4853 52.4775C86.4853 52.4301 86.2534 51.6004 85.9883 50.6284C85.6072 49.3246 85.5244 48.8504 85.6901 48.7793C86.5682 48.3763 87.4794 45.6026 87.2309 44.0143C87.0652 42.9712 86.3859 41.9282 85.6901 41.6437C85.0605 41.4066 80.6865 41.3118 80.6865 41.5488ZM84.6297 44.5359C84.9279 44.9626 84.8782 45.5315 84.4806 46.2427C84.1989 46.7643 84.0167 46.8591 83.3208 46.8591C82.6084 46.8591 82.4924 46.8117 82.5752 46.4324C82.6249 46.219 82.7078 45.6264 82.774 45.1285C82.8735 44.2514 82.89 44.2514 83.6522 44.2514C84.0829 44.2514 84.5137 44.3699 84.6297 44.5359Z" fill="black"/>
<path d="M88.7358 44.418C89.15 46.1012 89.5974 47.8317 89.7133 48.3059C89.8624 48.8985 89.879 49.4675 89.7796 50.2024C89.7133 50.7713 89.6471 51.5299 89.6305 51.8855V51.8855C89.6305 52.2521 89.9277 52.5493 90.2943 52.5493H90.8565V52.5493C91.5552 52.5493 92.1428 52.0254 92.2225 51.3313L92.2814 50.8187C92.4802 49.2304 92.5962 48.8748 94.1867 45.5559C95.1146 43.5883 95.9264 41.8577 95.9927 41.6918C96.0755 41.4784 95.8104 41.4073 94.8163 41.4073V41.4073C94.0284 41.4218 93.3205 41.8925 93.0025 42.6137L92.6459 43.4223C92.1489 44.5365 91.7015 45.4374 91.6352 45.4374C91.569 45.4374 91.3039 44.5365 91.0388 43.4223L90.8473 42.6459C90.6678 41.9185 90.0152 41.4073 89.266 41.4073V41.4073V41.4073C88.6174 41.4073 88.141 42.0161 88.2969 42.6456L88.7358 44.418Z" fill="black"/>
<path opacity="0.07" d="M101.316 0H8.68421C3.76316 0 0 3.7375 0 8.625V60.375C0 65.2625 4.05263 69 8.68421 69H101.316C106.237 69 110 65.2625 110 60.375V8.625C110 3.7375 105.947 0 101.316 0ZM101.316 2.875C104.5 2.875 107.105 5.4625 107.105 8.625V60.375C107.105 63.5375 104.5 66.125 101.316 66.125H8.68421C5.5 66.125 2.89474 63.5375 2.89474 60.375V8.625C2.89474 5.4625 5.5 2.875 8.68421 2.875H101.316Z" fill="black"/>
</svg>
