<svg width="163" height="81" viewBox="0 0 163 81" fill="none" xmlns="http://www.w3.org/2000/svg">
<g clip-path="url(#clip0_67_635)">
<path d="M143.4 48V78C143.4 79.1 142.5 80 141.4 80H21.2998C20.1998 80 19.2998 79.1 19.2998 78V3C19.2998 1.9 20.1998 1 21.2998 1H141.4C142.5 1 143.4 1.9 143.4 3V40M19.2998 11H143.4" stroke="black" stroke-opacity="0.56" stroke-width="2" stroke-miterlimit="10"/>
<path d="M24.5002 7.60001C25.4943 7.60001 26.3002 6.7941 26.3002 5.79999C26.3002 4.80588 25.4943 4 24.5002 4C23.5061 4 22.7002 4.80588 22.7002 5.79999C22.7002 6.7941 23.5061 7.60001 24.5002 7.60001Z" fill="black" fill-opacity="0.56"/>
<path d="M30.0998 7.60001C31.0939 7.60001 31.8998 6.7941 31.8998 5.79999C31.8998 4.80588 31.0939 4 30.0998 4C29.1057 4 28.2998 4.80588 28.2998 5.79999C28.2998 6.7941 29.1057 7.60001 30.0998 7.60001Z" fill="black" fill-opacity="0.56"/>
<path d="M35.7004 7.60001C36.6945 7.60001 37.5004 6.7941 37.5004 5.79999C37.5004 4.80588 36.6945 4 35.7004 4C34.7063 4 33.9004 4.80588 33.9004 5.79999C33.9004 6.7941 34.7063 7.60001 35.7004 7.60001Z" fill="black" fill-opacity="0.56"/>
<path d="M123.6 43.9999H160.3M156.7 39.8999L160.7 43.9999L156.7 48.0999" stroke="black" stroke-opacity="0.56" stroke-width="2" stroke-miterlimit="10"/>
</g>
<defs>
<clipPath id="clip0_67_635">
<rect width="163" height="80.9" fill="white"/>
</clipPath>
</defs>
</svg>
